%
M48
M72
T01C0.0157
T02C0.0315
T03C0.0354
T04C0.0394
%
T01
X5246Y-22
X8024Y10601
X11424Y11801
X6774Y18251
T02
X8661Y8110
X8071Y5236
X276Y5039
T03
X17174Y15051
X17174Y16051
X20174Y16051
X20174Y15051
X17174Y18051
X20174Y19051
X20174Y20051
X20174Y21051
X17174Y21051
X17174Y20051
T04
X12472Y14921
X11672Y14921
X11693Y14173
X12472Y14221
M30
