%
M48
M72
T01C0.0157
T02C0.0315
T03C0.0354
T04C0.0394
T05C0.1200
T06C0.1500
%
T01
X40024Y871
X40536Y871
X41008Y871
X44222Y6277
X42992Y6911
X40797Y14053
X40325Y14053
X39813Y14053
X47197Y16061
X44623Y19704
X42789Y20078
X45750Y24550
T02
X46236Y13949
X46268Y11937
X39252Y11339
T03
X56150Y21350
X56150Y22350
X59150Y22350
X59150Y21350
X56150Y24350
X59150Y25350
X59150Y26350
X59150Y27350
X56150Y27350
X56150Y26350
T04
X51448Y21220
X50648Y21220
X50669Y20472
X51448Y20520
X44477Y27029
X43477Y27029
T05
X30Y225
X-12Y28536
X59688Y28622
X59626Y159
T06
X32276Y2232
X16116Y2232
X16116Y26638
X32276Y26638
M30
