G04 ===== Begin FILE IDENTIFICATION =====*
G04 File Format:  Gerber RS274X*
G04 ===== End FILE IDENTIFICATION =====*
%FSLAX24Y24*%
%MOIN*%
%SFA1.0000B1.0000*%
%OFA0.0B0.0*%
%ADD14R,0.078740X0.137402*%
%ADD15R,0.062992X0.039370*%
%ADD16R,0.074803X0.039370*%
%LNcond*%
%IPPOS*%
%LPD*%
G75*
G36*
G01X2626Y-600D02*
G01X3374D01*
G03X-1146I-2260J0D01*
G01X-398D01*
G02X2626I1512J0D01*
G01X2626D01*
G37*
G36*
G01X-398Y-600D02*
G01X-1146D01*
G01Y-2962D01*
G01X-398D01*
G01Y-600D01*
G37*
G36*
G01X-1933Y-1094D02*
G01Y-2468D01*
G01X-1146Y-2962D01*
G01Y-600D01*
G01X-1933Y-1094D01*
G37*
D14*
X-2327Y-1781D03*
G36*
G01X-398Y-2962D02*
G01X-1146D01*
G03X3374I2260J0D01*
G01X2626D01*
G02X-398I-1512J0D01*
G01X-398D01*
G37*
G36*
G01X2626Y-2962D02*
G01X3374D01*
G01Y-2805D01*
G01X2626D01*
G01Y-2962D01*
G37*
G36*
G01X4161Y-3570D02*
G01Y-2196D01*
G01X3374Y-2805D01*
G01Y-2962D01*
G01X4161Y-3570D01*
G37*
D14*
X4555Y-2883D03*
D15*
X3000Y-2214D03*
Y-1348D03*
G36*
G01X2626Y-757D02*
G01X3374D01*
G01Y-600D01*
G01X2626D01*
G01Y-757D01*
G37*
G36*
G01X4161Y-1366D02*
G01Y8D01*
G01X3374Y-600D01*
G01Y-757D01*
G01X4161Y-1366D01*
G37*
D14*
X4555Y-679D03*
D16*
X3000Y-2608D03*
Y-954D03*
M02*

