G75*
%MOIN*%
%OFA0B0*%
%FSLAX25Y25*%
%IPPOS*%
%LPD*%
%AMOC8*
5,1,8,0,0,1.08239X$1,22.5*
%
%ADD10R,0.05512X0.03937*%
%ADD11R,0.07874X0.06299*%
%ADD12R,0.02362X0.03150*%
%ADD13R,0.03543X0.03150*%
%ADD14R,0.08661X0.06299*%
%ADD15C,0.06000*%
%ADD16C,0.05000*%
%ADD17C,0.01600*%
D10*
X0040581Y0043760D03*
X0031919Y0047500D03*
X0040581Y0051240D03*
X0058169Y0051240D03*
X0066831Y0047500D03*
X0058169Y0043760D03*
D11*
X0071250Y0031762D03*
X0071250Y0020738D03*
X0087500Y0036988D03*
X0087500Y0048012D03*
X0045000Y0031762D03*
X0032500Y0031762D03*
X0032500Y0020738D03*
X0045000Y0020738D03*
X0018750Y0040738D03*
X0018750Y0051762D03*
D12*
X0086132Y0027500D03*
X0091250Y0027500D03*
X0086132Y0021201D03*
D13*
X0090659Y0021201D03*
D14*
X0101250Y0036988D03*
X0101250Y0048012D03*
X0058750Y0031762D03*
X0058750Y0020738D03*
D15*
X0019250Y0020000D02*
X0013250Y0020000D01*
X0013250Y0010000D02*
X0019250Y0010000D01*
D16*
X0010000Y0027500D03*
X0023750Y0032500D03*
X0048750Y0038750D03*
X0058750Y0011250D03*
X0086250Y0013750D03*
X0111250Y0036250D03*
D17*
X0004800Y0055161D02*
X0004800Y0004800D01*
X0113901Y0004800D01*
X0113901Y0033103D01*
X0113572Y0032774D01*
X0112066Y0032150D01*
X0110434Y0032150D01*
X0108928Y0032774D01*
X0107774Y0033928D01*
X0107501Y0034588D01*
X0107181Y0034588D01*
X0107181Y0033176D01*
X0106243Y0032239D01*
X0103650Y0032239D01*
X0103650Y0029523D01*
X0103285Y0028641D01*
X0100785Y0026141D01*
X0100109Y0025465D01*
X0099227Y0025100D01*
X0093869Y0025100D01*
X0093187Y0024418D01*
X0093536Y0024216D01*
X0093871Y0023881D01*
X0094108Y0023470D01*
X0094231Y0023013D01*
X0094231Y0021201D01*
X0090660Y0021201D01*
X0090660Y0021201D01*
X0094231Y0021201D01*
X0094231Y0019389D01*
X0094108Y0018931D01*
X0093871Y0018521D01*
X0093536Y0018186D01*
X0093126Y0017949D01*
X0092668Y0017826D01*
X0090659Y0017826D01*
X0090659Y0021201D01*
X0090659Y0021201D01*
X0090659Y0017826D01*
X0088651Y0017826D01*
X0088532Y0017858D01*
X0088532Y0017243D01*
X0088572Y0017226D01*
X0089726Y0016072D01*
X0090350Y0014566D01*
X0090350Y0012934D01*
X0089726Y0011428D01*
X0088572Y0010274D01*
X0087066Y0009650D01*
X0085434Y0009650D01*
X0083928Y0010274D01*
X0082774Y0011428D01*
X0082150Y0012934D01*
X0082150Y0014566D01*
X0082774Y0016072D01*
X0083732Y0017030D01*
X0083732Y0018582D01*
X0083464Y0018850D01*
X0080773Y0018850D01*
X0079891Y0019215D01*
X0079215Y0019891D01*
X0077965Y0021141D01*
X0077600Y0022023D01*
X0077600Y0029006D01*
X0077244Y0029362D01*
X0076787Y0029362D01*
X0076787Y0027949D01*
X0075850Y0027012D01*
X0066650Y0027012D01*
X0065713Y0027949D01*
X0065713Y0035574D01*
X0066650Y0036511D01*
X0075850Y0036511D01*
X0076787Y0035574D01*
X0076787Y0034162D01*
X0078716Y0034162D01*
X0079598Y0033796D01*
X0081359Y0032035D01*
X0082035Y0031359D01*
X0082400Y0030477D01*
X0082400Y0023650D01*
X0083562Y0023650D01*
X0084195Y0024283D01*
X0083846Y0024485D01*
X0083510Y0024820D01*
X0083273Y0025230D01*
X0083151Y0025688D01*
X0083151Y0027500D01*
X0086132Y0027500D01*
X0086132Y0027500D01*
X0086132Y0030875D01*
X0087550Y0030875D01*
X0088008Y0030752D01*
X0088418Y0030515D01*
X0088753Y0030180D01*
X0088811Y0030080D01*
X0089406Y0030675D01*
X0093094Y0030675D01*
X0093869Y0029900D01*
X0097756Y0029900D01*
X0098850Y0030994D01*
X0098850Y0032239D01*
X0096257Y0032239D01*
X0095319Y0033176D01*
X0095319Y0040801D01*
X0096257Y0041738D01*
X0106243Y0041738D01*
X0107181Y0040801D01*
X0107181Y0039388D01*
X0108590Y0039388D01*
X0108928Y0039726D01*
X0110434Y0040350D01*
X0112066Y0040350D01*
X0113572Y0039726D01*
X0113901Y0039397D01*
X0113901Y0055161D01*
X0043233Y0055161D01*
X0043285Y0055109D01*
X0043409Y0054809D01*
X0043999Y0054809D01*
X0044937Y0053871D01*
X0044937Y0048609D01*
X0043999Y0047672D01*
X0037162Y0047672D01*
X0036275Y0048559D01*
X0036275Y0046538D01*
X0036324Y0046490D01*
X0037162Y0047328D01*
X0043999Y0047328D01*
X0044937Y0046391D01*
X0044937Y0046150D01*
X0047756Y0046150D01*
X0053813Y0052207D01*
X0053813Y0053871D01*
X0054751Y0054809D01*
X0061588Y0054809D01*
X0062525Y0053871D01*
X0062525Y0050182D01*
X0063412Y0051068D01*
X0070249Y0051068D01*
X0071187Y0050131D01*
X0071187Y0049900D01*
X0081963Y0049900D01*
X0081963Y0051824D01*
X0082900Y0052761D01*
X0092100Y0052761D01*
X0093037Y0051824D01*
X0093037Y0050412D01*
X0095319Y0050412D01*
X0095319Y0051824D01*
X0096257Y0052761D01*
X0106243Y0052761D01*
X0107181Y0051824D01*
X0107181Y0044199D01*
X0106243Y0043262D01*
X0096257Y0043262D01*
X0095319Y0044199D01*
X0095319Y0045612D01*
X0093037Y0045612D01*
X0093037Y0044199D01*
X0092100Y0043262D01*
X0082900Y0043262D01*
X0081963Y0044199D01*
X0081963Y0045100D01*
X0071187Y0045100D01*
X0071187Y0044869D01*
X0070249Y0043931D01*
X0063412Y0043931D01*
X0062525Y0044818D01*
X0062525Y0041129D01*
X0061588Y0040191D01*
X0060569Y0040191D01*
X0060569Y0036511D01*
X0063743Y0036511D01*
X0064681Y0035574D01*
X0064681Y0027949D01*
X0063743Y0027012D01*
X0053757Y0027012D01*
X0052819Y0027949D01*
X0052819Y0029362D01*
X0050537Y0029362D01*
X0050537Y0027949D01*
X0049600Y0027012D01*
X0046382Y0027012D01*
X0047035Y0026359D01*
X0047396Y0025488D01*
X0049600Y0025488D01*
X0050537Y0024551D01*
X0050537Y0016926D01*
X0049600Y0015989D01*
X0040400Y0015989D01*
X0039463Y0016926D01*
X0039463Y0023850D01*
X0038237Y0023850D01*
X0038237Y0021513D01*
X0033275Y0021513D01*
X0033275Y0019963D01*
X0033275Y0015789D01*
X0036674Y0015789D01*
X0037132Y0015911D01*
X0037542Y0016148D01*
X0037877Y0016483D01*
X0038114Y0016894D01*
X0038237Y0017352D01*
X0038237Y0019963D01*
X0033275Y0019963D01*
X0031725Y0019963D01*
X0031725Y0015789D01*
X0028326Y0015789D01*
X0027868Y0015911D01*
X0027458Y0016148D01*
X0027123Y0016483D01*
X0026886Y0016894D01*
X0026763Y0017352D01*
X0026763Y0019963D01*
X0031725Y0019963D01*
X0031725Y0021513D01*
X0026763Y0021513D01*
X0026763Y0023850D01*
X0021905Y0023850D01*
X0023150Y0022606D01*
X0023850Y0020915D01*
X0023850Y0019085D01*
X0023150Y0017394D01*
X0021856Y0016100D01*
X0020165Y0015400D01*
X0012335Y0015400D01*
X0010644Y0016100D01*
X0009350Y0017394D01*
X0008650Y0019085D01*
X0008650Y0020456D01*
X0007965Y0021141D01*
X0007600Y0022023D01*
X0007600Y0024102D01*
X0006524Y0025178D01*
X0005900Y0026684D01*
X0005900Y0028316D01*
X0006524Y0029822D01*
X0007678Y0030976D01*
X0009184Y0031600D01*
X0010816Y0031600D01*
X0012322Y0030976D01*
X0013476Y0029822D01*
X0013850Y0028919D01*
X0013850Y0031727D01*
X0014215Y0032609D01*
X0016350Y0034744D01*
X0016350Y0035989D01*
X0014150Y0035989D01*
X0013213Y0036926D01*
X0013213Y0044551D01*
X0014150Y0045488D01*
X0023350Y0045488D01*
X0024287Y0044551D01*
X0024287Y0036926D01*
X0023961Y0036600D01*
X0024566Y0036600D01*
X0026072Y0035976D01*
X0026963Y0035085D01*
X0026963Y0035574D01*
X0027900Y0036511D01*
X0030100Y0036511D01*
X0030100Y0043931D01*
X0028501Y0043931D01*
X0027563Y0044869D01*
X0027563Y0050131D01*
X0028501Y0051068D01*
X0035338Y0051068D01*
X0036225Y0050182D01*
X0036225Y0053850D01*
X0024287Y0053850D01*
X0024287Y0047949D01*
X0023350Y0047012D01*
X0014150Y0047012D01*
X0013213Y0047949D01*
X0013213Y0055161D01*
X0004800Y0055161D01*
X0004800Y0054349D02*
X0013213Y0054349D01*
X0013213Y0052751D02*
X0004800Y0052751D01*
X0004800Y0051152D02*
X0013213Y0051152D01*
X0013213Y0049554D02*
X0004800Y0049554D01*
X0004800Y0047955D02*
X0013213Y0047955D01*
X0013421Y0044758D02*
X0004800Y0044758D01*
X0004800Y0043160D02*
X0013213Y0043160D01*
X0013213Y0041561D02*
X0004800Y0041561D01*
X0004800Y0039963D02*
X0013213Y0039963D01*
X0013213Y0038364D02*
X0004800Y0038364D01*
X0004800Y0036766D02*
X0013373Y0036766D01*
X0016350Y0035167D02*
X0004800Y0035167D01*
X0004800Y0033569D02*
X0015175Y0033569D01*
X0013951Y0031970D02*
X0004800Y0031970D01*
X0004800Y0030372D02*
X0007073Y0030372D01*
X0006090Y0028773D02*
X0004800Y0028773D01*
X0004800Y0027175D02*
X0005900Y0027175D01*
X0006359Y0025576D02*
X0004800Y0025576D01*
X0004800Y0023978D02*
X0007600Y0023978D01*
X0007600Y0022379D02*
X0004800Y0022379D01*
X0004800Y0020781D02*
X0008325Y0020781D01*
X0010000Y0022500D02*
X0012500Y0020000D01*
X0016250Y0020000D01*
X0016250Y0028750D01*
X0018750Y0026250D01*
X0043750Y0026250D01*
X0045000Y0025000D01*
X0045000Y0020738D01*
X0047359Y0025576D02*
X0077600Y0025576D01*
X0076787Y0024551D02*
X0075850Y0025488D01*
X0066650Y0025488D01*
X0065713Y0024551D01*
X0065713Y0023138D01*
X0064681Y0023138D01*
X0064681Y0024551D01*
X0063743Y0025488D01*
X0053757Y0025488D01*
X0052819Y0024551D01*
X0052819Y0016926D01*
X0053757Y0015989D01*
X0056350Y0015989D01*
X0056350Y0014648D01*
X0055274Y0013572D01*
X0054650Y0012066D01*
X0054650Y0010434D01*
X0055274Y0008928D01*
X0056428Y0007774D01*
X0057934Y0007150D01*
X0059566Y0007150D01*
X0061072Y0007774D01*
X0062226Y0008928D01*
X0062850Y0010434D01*
X0062850Y0012066D01*
X0062226Y0013572D01*
X0061150Y0014648D01*
X0061150Y0015989D01*
X0063743Y0015989D01*
X0064681Y0016926D01*
X0064681Y0018338D01*
X0065713Y0018338D01*
X0065713Y0016926D01*
X0066650Y0015989D01*
X0075850Y0015989D01*
X0076787Y0016926D01*
X0076787Y0024551D01*
X0076787Y0023978D02*
X0077600Y0023978D01*
X0077600Y0022379D02*
X0076787Y0022379D01*
X0076787Y0020781D02*
X0078325Y0020781D01*
X0080000Y0022500D02*
X0081250Y0021250D01*
X0086083Y0021250D01*
X0086132Y0021201D01*
X0086132Y0013868D01*
X0086250Y0013750D01*
X0083012Y0011190D02*
X0062850Y0011190D01*
X0062551Y0012788D02*
X0082211Y0012788D01*
X0082150Y0014387D02*
X0061412Y0014387D01*
X0061150Y0015985D02*
X0082738Y0015985D01*
X0083732Y0017584D02*
X0076787Y0017584D01*
X0076787Y0019182D02*
X0079971Y0019182D01*
X0080000Y0022500D02*
X0080000Y0030000D01*
X0078238Y0031762D01*
X0071250Y0031762D01*
X0065713Y0031970D02*
X0064681Y0031970D01*
X0064681Y0030372D02*
X0065713Y0030372D01*
X0065713Y0028773D02*
X0064681Y0028773D01*
X0063906Y0027175D02*
X0066488Y0027175D01*
X0065713Y0023978D02*
X0064681Y0023978D01*
X0058750Y0020738D02*
X0058750Y0011250D01*
X0062501Y0009591D02*
X0113901Y0009591D01*
X0113901Y0007993D02*
X0061291Y0007993D01*
X0056209Y0007993D02*
X0023614Y0007993D01*
X0023698Y0008157D02*
X0023355Y0007484D01*
X0022911Y0006873D01*
X0022377Y0006339D01*
X0021766Y0005895D01*
X0021093Y0005552D01*
X0020374Y0005318D01*
X0019628Y0005200D01*
X0016450Y0005200D01*
X0016450Y0009800D01*
X0016450Y0010200D01*
X0016050Y0010200D01*
X0016050Y0014800D01*
X0012872Y0014800D01*
X0012126Y0014682D01*
X0011407Y0014448D01*
X0010734Y0014105D01*
X0010123Y0013661D01*
X0009589Y0013127D01*
X0009145Y0012516D01*
X0008802Y0011843D01*
X0008568Y0011124D01*
X0008450Y0010378D01*
X0008450Y0010200D01*
X0016050Y0010200D01*
X0016050Y0009800D01*
X0016450Y0009800D01*
X0024050Y0009800D01*
X0024050Y0009622D01*
X0023932Y0008876D01*
X0023698Y0008157D01*
X0024045Y0009591D02*
X0054999Y0009591D01*
X0054650Y0011190D02*
X0023910Y0011190D01*
X0023932Y0011124D02*
X0023698Y0011843D01*
X0023355Y0012516D01*
X0022911Y0013127D01*
X0022377Y0013661D01*
X0021766Y0014105D01*
X0021093Y0014448D01*
X0020374Y0014682D01*
X0019628Y0014800D01*
X0016450Y0014800D01*
X0016450Y0010200D01*
X0024050Y0010200D01*
X0024050Y0010378D01*
X0023932Y0011124D01*
X0023157Y0012788D02*
X0054949Y0012788D01*
X0056088Y0014387D02*
X0021214Y0014387D01*
X0021578Y0015985D02*
X0027740Y0015985D01*
X0026763Y0017584D02*
X0023228Y0017584D01*
X0023850Y0019182D02*
X0026763Y0019182D01*
X0023850Y0020781D02*
X0031725Y0020781D01*
X0033275Y0020781D02*
X0039463Y0020781D01*
X0039463Y0022379D02*
X0038237Y0022379D01*
X0038237Y0019182D02*
X0039463Y0019182D01*
X0039463Y0017584D02*
X0038237Y0017584D01*
X0037260Y0015985D02*
X0056350Y0015985D01*
X0052819Y0017584D02*
X0050537Y0017584D01*
X0050537Y0019182D02*
X0052819Y0019182D01*
X0052819Y0020781D02*
X0050537Y0020781D01*
X0050537Y0022379D02*
X0052819Y0022379D01*
X0052819Y0023978D02*
X0050537Y0023978D01*
X0049762Y0027175D02*
X0053594Y0027175D01*
X0052819Y0028773D02*
X0050537Y0028773D01*
X0045000Y0031762D02*
X0045000Y0035000D01*
X0048750Y0038750D01*
X0048750Y0043750D02*
X0056240Y0051240D01*
X0058169Y0051240D01*
X0062525Y0051152D02*
X0081963Y0051152D01*
X0082890Y0052751D02*
X0062525Y0052751D01*
X0062047Y0054349D02*
X0113901Y0054349D01*
X0113901Y0052751D02*
X0106254Y0052751D01*
X0107181Y0051152D02*
X0113901Y0051152D01*
X0113901Y0049554D02*
X0107181Y0049554D01*
X0107181Y0047955D02*
X0113901Y0047955D01*
X0113901Y0046357D02*
X0107181Y0046357D01*
X0107181Y0044758D02*
X0113901Y0044758D01*
X0113901Y0043160D02*
X0062525Y0043160D01*
X0062525Y0044758D02*
X0062585Y0044758D01*
X0062525Y0041561D02*
X0082441Y0041561D01*
X0082458Y0041578D02*
X0082123Y0041243D01*
X0081886Y0040833D01*
X0081763Y0040375D01*
X0081763Y0037763D01*
X0086725Y0037763D01*
X0086725Y0036213D01*
X0088275Y0036213D01*
X0088275Y0032039D01*
X0091674Y0032039D01*
X0092132Y0032161D01*
X0092542Y0032398D01*
X0092877Y0032733D01*
X0093114Y0033144D01*
X0093237Y0033602D01*
X0093237Y0036213D01*
X0088275Y0036213D01*
X0088275Y0037763D01*
X0093237Y0037763D01*
X0093237Y0040375D01*
X0093114Y0040833D01*
X0092877Y0041243D01*
X0092542Y0041578D01*
X0092132Y0041815D01*
X0091674Y0041938D01*
X0088275Y0041938D01*
X0088275Y0037763D01*
X0086725Y0037763D01*
X0086725Y0041938D01*
X0083326Y0041938D01*
X0082868Y0041815D01*
X0082458Y0041578D01*
X0081763Y0039963D02*
X0060569Y0039963D01*
X0060569Y0038364D02*
X0081763Y0038364D01*
X0081763Y0036213D02*
X0081763Y0033602D01*
X0081886Y0033144D01*
X0082123Y0032733D01*
X0082458Y0032398D01*
X0082868Y0032161D01*
X0083326Y0032039D01*
X0086725Y0032039D01*
X0086725Y0036213D01*
X0081763Y0036213D01*
X0081763Y0035167D02*
X0076787Y0035167D01*
X0079825Y0033569D02*
X0081772Y0033569D01*
X0081424Y0031970D02*
X0098850Y0031970D01*
X0098228Y0030372D02*
X0093397Y0030372D01*
X0093228Y0033569D02*
X0095319Y0033569D01*
X0095319Y0035167D02*
X0093237Y0035167D01*
X0095319Y0036766D02*
X0088275Y0036766D01*
X0086725Y0036766D02*
X0060569Y0036766D01*
X0064681Y0035167D02*
X0065713Y0035167D01*
X0065713Y0033569D02*
X0064681Y0033569D01*
X0058750Y0031762D02*
X0045000Y0031762D01*
X0032500Y0031762D02*
X0024488Y0031762D01*
X0023750Y0032500D01*
X0026881Y0035167D02*
X0026963Y0035167D01*
X0024127Y0036766D02*
X0030100Y0036766D01*
X0030100Y0038364D02*
X0024287Y0038364D01*
X0024287Y0039963D02*
X0030100Y0039963D01*
X0030100Y0041561D02*
X0024287Y0041561D01*
X0024287Y0043160D02*
X0030100Y0043160D01*
X0027674Y0044758D02*
X0024079Y0044758D01*
X0027563Y0046357D02*
X0004800Y0046357D01*
X0018750Y0051762D02*
X0018750Y0055000D01*
X0020000Y0056250D01*
X0038750Y0056250D01*
X0041250Y0053750D01*
X0041250Y0051909D01*
X0040581Y0051240D01*
X0044937Y0051152D02*
X0052758Y0051152D01*
X0051160Y0049554D02*
X0044937Y0049554D01*
X0044283Y0047955D02*
X0049561Y0047955D01*
X0047963Y0046357D02*
X0044937Y0046357D01*
X0048750Y0043750D02*
X0040591Y0043750D01*
X0040581Y0043760D01*
X0035659Y0043760D01*
X0031919Y0047500D01*
X0032500Y0046919D01*
X0032500Y0031762D01*
X0026763Y0022379D02*
X0023244Y0022379D01*
X0016250Y0028750D02*
X0016250Y0031250D01*
X0018750Y0033750D01*
X0018750Y0040738D01*
X0024287Y0047955D02*
X0027563Y0047955D01*
X0027563Y0049554D02*
X0024287Y0049554D01*
X0024287Y0051152D02*
X0036225Y0051152D01*
X0036225Y0052751D02*
X0024287Y0052751D01*
X0036275Y0047955D02*
X0036878Y0047955D01*
X0044937Y0052751D02*
X0053813Y0052751D01*
X0054291Y0054349D02*
X0044459Y0054349D01*
X0058169Y0043760D02*
X0058169Y0032343D01*
X0058750Y0031762D01*
X0058750Y0020738D02*
X0071250Y0020738D01*
X0065713Y0017584D02*
X0064681Y0017584D01*
X0076012Y0027175D02*
X0077600Y0027175D01*
X0077600Y0028773D02*
X0076787Y0028773D01*
X0082400Y0028773D02*
X0083151Y0028773D01*
X0083151Y0029312D02*
X0083151Y0027500D01*
X0086132Y0027500D01*
X0086132Y0030875D01*
X0084714Y0030875D01*
X0084256Y0030752D01*
X0083846Y0030515D01*
X0083510Y0030180D01*
X0083273Y0029770D01*
X0083151Y0029312D01*
X0083702Y0030372D02*
X0082400Y0030372D01*
X0086132Y0030372D02*
X0086132Y0030372D01*
X0086132Y0028773D02*
X0086132Y0028773D01*
X0086132Y0027500D02*
X0086132Y0027500D01*
X0083151Y0027175D02*
X0082400Y0027175D01*
X0082400Y0025576D02*
X0083181Y0025576D01*
X0083890Y0023978D02*
X0082400Y0023978D01*
X0090659Y0020781D02*
X0090659Y0020781D01*
X0090659Y0019182D02*
X0090659Y0019182D01*
X0088532Y0017584D02*
X0113901Y0017584D01*
X0113901Y0019182D02*
X0094176Y0019182D01*
X0094231Y0020781D02*
X0113901Y0020781D01*
X0113901Y0022379D02*
X0094231Y0022379D01*
X0093775Y0023978D02*
X0113901Y0023978D01*
X0113901Y0025576D02*
X0100220Y0025576D01*
X0101819Y0027175D02*
X0113901Y0027175D01*
X0113901Y0028773D02*
X0103340Y0028773D01*
X0101250Y0030000D02*
X0098750Y0027500D01*
X0091250Y0027500D01*
X0089103Y0030372D02*
X0088562Y0030372D01*
X0088275Y0033569D02*
X0086725Y0033569D01*
X0086725Y0035167D02*
X0088275Y0035167D01*
X0088275Y0038364D02*
X0086725Y0038364D01*
X0086725Y0039963D02*
X0088275Y0039963D01*
X0088275Y0041561D02*
X0086725Y0041561D01*
X0081963Y0044758D02*
X0071076Y0044758D01*
X0066831Y0047500D02*
X0088012Y0047500D01*
X0087500Y0048012D01*
X0101250Y0048012D01*
X0095319Y0051152D02*
X0093037Y0051152D01*
X0092110Y0052751D02*
X0096246Y0052751D01*
X0090000Y0047500D02*
X0088012Y0047500D01*
X0093037Y0044758D02*
X0095319Y0044758D01*
X0096080Y0041561D02*
X0092559Y0041561D01*
X0093237Y0039963D02*
X0095319Y0039963D01*
X0095319Y0038364D02*
X0093237Y0038364D01*
X0101250Y0036988D02*
X0110512Y0036988D01*
X0111250Y0036250D01*
X0108133Y0033569D02*
X0107181Y0033569D01*
X0103650Y0031970D02*
X0113901Y0031970D01*
X0113901Y0030372D02*
X0103650Y0030372D01*
X0101250Y0030000D02*
X0101250Y0036988D01*
X0107181Y0039963D02*
X0109500Y0039963D01*
X0106420Y0041561D02*
X0113901Y0041561D01*
X0113901Y0039963D02*
X0113000Y0039963D01*
X0113901Y0015985D02*
X0089762Y0015985D01*
X0090350Y0014387D02*
X0113901Y0014387D01*
X0113901Y0012788D02*
X0090289Y0012788D01*
X0089488Y0011190D02*
X0113901Y0011190D01*
X0113901Y0006394D02*
X0022432Y0006394D01*
X0016450Y0006394D02*
X0016050Y0006394D01*
X0016050Y0005200D02*
X0016050Y0009800D01*
X0008450Y0009800D01*
X0008450Y0009622D01*
X0008568Y0008876D01*
X0008802Y0008157D01*
X0009145Y0007484D01*
X0009589Y0006873D01*
X0010123Y0006339D01*
X0010734Y0005895D01*
X0011407Y0005552D01*
X0012126Y0005318D01*
X0012872Y0005200D01*
X0016050Y0005200D01*
X0016050Y0007993D02*
X0016450Y0007993D01*
X0016450Y0009591D02*
X0016050Y0009591D01*
X0016050Y0011190D02*
X0016450Y0011190D01*
X0016450Y0012788D02*
X0016050Y0012788D01*
X0016050Y0014387D02*
X0016450Y0014387D01*
X0011286Y0014387D02*
X0004800Y0014387D01*
X0004800Y0012788D02*
X0009343Y0012788D01*
X0008590Y0011190D02*
X0004800Y0011190D01*
X0004800Y0009591D02*
X0008455Y0009591D01*
X0008886Y0007993D02*
X0004800Y0007993D01*
X0004800Y0006394D02*
X0010068Y0006394D01*
X0010922Y0015985D02*
X0004800Y0015985D01*
X0004800Y0017584D02*
X0009272Y0017584D01*
X0008650Y0019182D02*
X0004800Y0019182D01*
X0010000Y0022500D02*
X0010000Y0027500D01*
X0012927Y0030372D02*
X0013850Y0030372D01*
X0031725Y0019182D02*
X0033275Y0019182D01*
X0033275Y0017584D02*
X0031725Y0017584D01*
X0031725Y0015985D02*
X0033275Y0015985D01*
M02*
