G75*
%MOIN*%
%OFA0B0*%
%FSLAX24Y24*%
%IPPOS*%
%LPD*%
%AMOC8*
5,1,8,0,0,1.08239X$1,22.5*
%
%ADD10R,0.0631X0.0474*%
%ADD11R,0.0710X0.0592*%
%ADD12R,0.0395X0.0316*%
%ADD13R,0.0395X0.0434*%
%ADD14R,0.0946X0.0710*%
%ADD15R,0.0513X0.0474*%
%ADD16R,0.0671X0.0867*%
%ADD17R,0.0671X0.0474*%
%ADD18C,0.0634*%
%ADD19R,0.0552X0.0552*%
%ADD20C,0.0397*%
D10*
X006346Y004001D03*
X007212Y004375D03*
X007212Y003627D03*
X008138Y003631D03*
X008138Y004379D03*
X009004Y004005D03*
D11*
X009006Y002871D03*
X009006Y002123D03*
X008145Y002120D03*
X008145Y002868D03*
X007218Y002884D03*
X007218Y002136D03*
X006371Y002136D03*
X006371Y002884D03*
X005506Y002880D03*
X005506Y002132D03*
X007464Y007646D03*
X007464Y008394D03*
X003970Y008159D03*
X003970Y008907D03*
D12*
X005362Y007542D03*
X005362Y007030D03*
X005992Y007030D03*
D13*
X005992Y007483D03*
D14*
X003852Y005774D03*
X003852Y006876D03*
X007584Y006362D03*
X007584Y005259D03*
D15*
X012269Y007018D03*
X012938Y007018D03*
X001859Y007534D03*
X001190Y007534D03*
D16*
X000678Y006845D03*
X000678Y008243D03*
X013450Y007727D03*
X013450Y006330D03*
D17*
X013450Y007019D03*
X000678Y007534D03*
D18*
X007265Y000846D03*
X008052Y000846D03*
D19*
X004640Y002092D03*
X004640Y002919D03*
D20*
X004639Y001725D03*
X006371Y001745D03*
X009002Y001705D03*
X005309Y006667D03*
X006059Y007917D03*
X007468Y008808D03*
X003971Y009309D03*
X000682Y008453D03*
X000677Y006628D03*
X013458Y006102D03*
X013448Y007965D03*
M02*
